<svg fill="#000000" xmlns="http://www.w3.org/2000/svg"  viewBox="0 0 50 50" width="500px" height="500px"><path d="M 25 1.5136719 C 24.84 1.5136719 24.680891 1.58175 24.587891 1.71875 L 9.953125 23.21875 C 9.877125 23.32975 9.8520469 23.460984 9.8730469 23.583984 C 9.8940469 23.706984 9.9623125 23.822344 10.070312 23.902344 L 24.703125 34.679688 C 24.792125 34.744688 24.896 34.777344 25 34.777344 C 25.104 34.777344 25.207875 34.746641 25.296875 34.681641 L 39.929688 23.902344 C 40.056688 23.808344 40.126812 23.666531 40.132812 23.519531 C 40.136813 23.415531 40.109875 23.31075 40.046875 23.21875 L 25.412109 1.71875 C 25.319109 1.58175 25.16 1.5136719 25 1.5136719 z M 24.5 3.6230469 L 24.5 18.878906 C 23.640994 19.130973 13.445232 22.116012 11.533203 22.675781 L 24.5 3.6230469 z M 25.5 3.6230469 L 38.466797 22.675781 C 36.554 22.115499 26.353425 19.12782 25.5 18.878906 L 25.5 3.6230469 z M 24.5 19.921875 L 24.5 33.287109 L 11.515625 23.724609 L 24.5 19.921875 z M 25.5 19.921875 L 38.484375 23.724609 L 25.5 33.287109 L 25.5 19.921875 z M 40.037109 26.001953 C 39.921859 25.993578 39.802625 26.025656 39.703125 26.097656 L 25 36.880859 L 10.296875 26.097656 C 10.099875 25.953656 9.8244375 25.973531 9.6484375 26.144531 C 9.4734375 26.316531 9.45075 26.591016 9.59375 26.791016 L 24.59375 47.791016 C 24.68775 47.922016 24.839 48 25 48 C 25.161 48 25.31225 47.921062 25.40625 47.789062 L 40.40625 26.789062 C 40.54825 26.590062 40.526562 26.317531 40.351562 26.144531 C 40.265062 26.059031 40.152359 26.010328 40.037109 26.001953 z M 12.220703 28.748047 L 24.5 37.755859 L 24.5 45.941406 L 12.220703 28.748047 z M 37.779297 28.748047 L 25.5 45.941406 L 25.5 37.755859 L 37.779297 28.748047 z"/></svg>